<?xml version="1.0" encoding="UTF-8"?>
<svg id="Calque_2" data-name="Calque 2" xmlns="http://www.w3.org/2000/svg" viewBox="0 0 200 200">
  <defs>
    <style>
      .cls-1 {
        fill: #68cbf5;
      }

      .cls-2 {
        fill: #fff;
      }
    </style>
  </defs>
  <g id="Calque_1-2" data-name="Calque 1">
    <circle class="cls-1" cx="100" cy="100" r="100"/>
    <g id="Layer_2" data-name="Layer 2">
      <path class="cls-2" d="M153.97,137.24c7.93-.57,14.39-7.86,14.39-15.81v-56.95c0-2.76-1.1-5.42-3.05-7.37l-9.89-9.92c-2.43-2.44-6.38-2.44-8.81,0h0c-2.44,2.44-2.43,6.39,0,8.82l9.31,9.27v56.37c0,1.49-1,2.87-2.46,3.16-2,.4-3.75-1.12-3.75-3.04v-5.78c0-10.3-8.35-18.64-18.64-18.64V52.68c0-8.18-6.63-14.82-14.82-14.82H58.89c-8.18,0-14.82,6.63-14.82,14.82v94.65c0,8.18,6.63,14.82,14.82,14.82h103.25c3.43,0,6.21-2.78,6.21-6.21h0c0-3.43-2.78-6.21-6.21-6.21h-31.07v-39.96c3.43,0,6.21,2.78,6.21,6.21v5.78c0,8.96,7.59,16.15,16.69,15.49ZM75.58,56.5h23.99c7.1,0,12.86,5.76,12.86,12.86v11.56c0,7.1-5.76,12.86-12.86,12.86h-23.99c-7.1,0-12.86-5.76-12.86-12.86v-11.56c0-7.1,5.76-12.86,12.86-12.86Z"/>
    </g>
  </g>
</svg>